<svg xmlns="http://www.w3.org/2000/svg" viewBox="0 0 64 64"><defs><style>.cls-1{fill:#ea9807;}.cls-2{fill:#00bebd;}.cls-3{fill:#f3f3f3;}.cls-4{fill:#00aaa8;}.cls-5{fill:#d8890b;}.cls-6{fill:#d9d9d9;}.cls-7{fill:#ffac00;}.cls-8{fill:#50d9d7;}.cls-9{fill:#93e6e5;}</style></defs><title>Folder</title><g id="Folder"><rect class="cls-1" y="24" width="58" height="40"/><rect class="cls-2" x="20" width="38" height="42"/><polygon class="cls-1" points="28 24 0 24 0 18 25 18 28 24"/><polygon class="cls-3" points="52 14 52 64 8 64 8 5 43 5 52 14"/><rect class="cls-4" x="52" y="37" width="6" height="27"/><polygon class="cls-5" points="8 37 8 64 0 64 0 55.42 4.42 37 8 37"/><rect class="cls-6" x="8" y="37" width="44" height="27"/><polygon class="cls-7" points="64 39 58 64 0 64 6 39 64 39"/><polygon class="cls-8" points="52 14 43 14 43 5 52 14"/><rect class="cls-2" x="29.71" y="10.15" width="4" height="4" rx="1" transform="translate(0.69 25.98) rotate(-45)"/><rect class="cls-2" x="14.15" y="25.71" width="4" height="4" rx="1" transform="translate(-14.86 19.54) rotate(-45)"/><rect class="cls-9" x="16.54" y="22.82" width="7" height="2" transform="translate(-10.97 21.15) rotate(-45)"/><rect class="cls-9" x="24.32" y="15.04" width="7" height="2" transform="translate(-3.19 24.37) rotate(-45)"/><path class="cls-9" d="M37.36,20.64A9,9,0,0,0,24.64,33.36a1,1,0,0,1-1.42,1.42A11,11,0,0,1,38.78,19.22,1,1,0,0,1,37.36,20.64Z"/><rect class="cls-2" x="21.93" y="17.93" width="4" height="4" rx="1" transform="translate(-7.08 22.76) rotate(-45)"/><rect class="cls-2" x="36.07" y="17.93" width="4" height="4" rx="1" transform="translate(-2.94 32.76) rotate(-45)"/><rect class="cls-2" x="21.93" y="32.07" width="4" height="4" rx="1" transform="translate(-17.08 26.9) rotate(-45)"/><rect class="cls-6" x="37" y="28" width="12" height="2"/><rect class="cls-6" x="41" y="32" width="8" height="2"/><circle class="cls-6" cx="12" cy="9" r="2"/></g></svg>